<?xml version="1.0" encoding="UTF-8" standalone="no" ?>
<!DOCTYPE svg PUBLIC "-//W3C//DTD SVG 1.1//EN" "http://www.w3.org/Graphics/SVG/1.1/DTD/svg11.dtd">
<svg xmlns="http://www.w3.org/2000/svg" xmlns:xlink="http://www.w3.org/1999/xlink" version="1.1" width="83" height="83" viewBox="0 0 83 83" xml:space="preserve">
<desc>Created with Fabric.js 5.2.4</desc>
<defs>
</defs>
<rect x="0" y="0" width="100%" height="100%" fill="transparent"></rect>
<g transform="matrix(1 0 0 1 41.5 41.5)" id="5ab01961-c1ed-42b8-87b9-84ddde3d7668"  >
<rect style="stroke: none; stroke-width: 1; stroke-dasharray: none; stroke-linecap: butt; stroke-dashoffset: 0; stroke-linejoin: miter; stroke-miterlimit: 4; fill: rgb(255,255,255); fill-rule: nonzero; opacity: 1; visibility: hidden;" vector-effect="non-scaling-stroke"  x="-41.5" y="-41.5" rx="0" ry="0" width="83" height="83" />
</g>
<g transform="matrix(0 0 0 0 0 0)" id="e58d3ec9-79c6-4538-8a0c-85213abe8dac"  >
</g>
<g transform="matrix(1.81 0 0 1.88 41.51 41.48)"  >
<path style="stroke: rgb(135,178,52); stroke-width: 0; stroke-dasharray: none; stroke-linecap: butt; stroke-dashoffset: 0; stroke-linejoin: miter; stroke-miterlimit: 4; fill: rgb(255,78,0); fill-rule: nonzero; opacity: 1;" vector-effect="non-scaling-stroke"  transform=" translate(-25, -25)" d="M 8 4 C 5.794 4 4 5.794 4 8 L 4 42 C 4 44.206 5.794 46 8 46 L 24 46 L 24 38.585938 L 32.585938 30 L 24 30 L 24 25 L 24 24 L 24 21 L 12.585938 21 L 24 9.5859375 L 24 4 L 8 4 z M 26 4 L 26 10.414062 L 17.414062 19 L 26 19 L 26 24 L 26 25 L 26 28 L 37.414062 28 L 26 39.414062 L 26 46 L 42 46 C 44.206 46 46 44.206 46 42 L 46 8 C 46 5.794 44.206 4 42 4 L 26 4 z" stroke-linecap="round" />
</g>
</svg>